<?xml version="1.0" encoding="UTF-8" standalone="no"?>
<!DOCTYPE svg PUBLIC "-//W3C//DTD SVG 1.1//EN"
 "http://www.w3.org/Graphics/SVG/1.1/DTD/svg11.dtd">
<!-- Generated by graphviz version 2.43.0 (0)
 -->
<!-- Title: %3 Pages: 1 -->
<svg width="2172pt" height="1052pt"
 viewBox="0.00 0.00 2172.00 1052.00" xmlns="http://www.w3.org/2000/svg" xmlns:xlink="http://www.w3.org/1999/xlink">
<g id="graph0" class="graph" transform="scale(1 1) rotate(0) translate(4 1048)">
<title>%3</title>
<polygon fill="white" stroke="transparent" points="-4,4 -4,-1048 2168,-1048 2168,4 -4,4"/>
<!-- hm -->
<g id="node1" class="node">
<title>hm</title>
<ellipse fill="none" stroke="black" cx="131" cy="-1026" rx="30.59" ry="18"/>
<text text-anchor="middle" x="131" y="-1022.3" font-family="Times,serif" font-size="14.00">%hm</text>
</g>
<!-- lg -->
<g id="node2" class="node">
<title>lg</title>
<ellipse fill="none" stroke="black" cx="281" cy="-954" rx="27" ry="18"/>
<text text-anchor="middle" x="281" y="-950.3" font-family="Times,serif" font-size="14.00">&amp;lg</text>
</g>
<!-- hm&#45;&gt;lg -->
<g id="edge1" class="edge">
<title>hm&#45;&gt;lg</title>
<path fill="none" stroke="black" d="M154.11,-1014.22C179.95,-1002.16 221.91,-982.57 250.45,-969.26"/>
<polygon fill="black" stroke="black" points="251.99,-972.4 259.57,-965 249.03,-966.06 251.99,-972.4"/>
</g>
<!-- dn -->
<g id="node14" class="node">
<title>dn</title>
<ellipse fill="none" stroke="black" cx="321" cy="-306" rx="27.1" ry="18"/>
<text text-anchor="middle" x="321" y="-302.3" font-family="Times,serif" font-size="14.00">%dn</text>
</g>
<!-- lg&#45;&gt;dn -->
<g id="edge102" class="edge">
<title>lg&#45;&gt;dn</title>
<path fill="none" stroke="black" d="M291.99,-937.22C308.55,-911.85 338,-859.88 338,-811 338,-811 338,-811 338,-449 338,-408.71 331.17,-362.44 326.17,-333.96"/>
<polygon fill="black" stroke="black" points="329.58,-333.19 324.36,-323.97 322.7,-334.43 329.58,-333.19"/>
</g>
<!-- nd -->
<g id="node16" class="node">
<title>nd</title>
<ellipse fill="none" stroke="black" cx="431" cy="-882" rx="27.1" ry="18"/>
<text text-anchor="middle" x="431" y="-878.3" font-family="Times,serif" font-size="14.00">%nd</text>
</g>
<!-- lg&#45;&gt;nd -->
<g id="edge103" class="edge">
<title>lg&#45;&gt;nd</title>
<path fill="none" stroke="black" d="M300.6,-941.44C325.58,-928.83 368.67,-908.69 398.53,-895.66"/>
<polygon fill="black" stroke="black" points="399.93,-898.87 407.72,-891.7 397.16,-892.44 399.93,-898.87"/>
</g>
<!-- tc -->
<g id="node17" class="node">
<title>tc</title>
<ellipse fill="none" stroke="black" cx="207" cy="-810" rx="27" ry="18"/>
<text text-anchor="middle" x="207" y="-806.3" font-family="Times,serif" font-size="14.00">%tc</text>
</g>
<!-- lg&#45;&gt;tc -->
<g id="edge104" class="edge">
<title>lg&#45;&gt;tc</title>
<path fill="none" stroke="black" d="M270.35,-937.07C263.61,-926.71 254.89,-912.79 248,-900 236.83,-879.28 225.76,-854.95 217.94,-836.98"/>
<polygon fill="black" stroke="black" points="221.12,-835.51 213.95,-827.71 214.69,-838.27 221.12,-835.51"/>
</g>
<!-- gq -->
<g id="node25" class="node">
<title>gq</title>
<ellipse fill="none" stroke="black" cx="264" cy="-450" rx="27.1" ry="18"/>
<text text-anchor="middle" x="264" y="-446.3" font-family="Times,serif" font-size="14.00">%gq</text>
</g>
<!-- lg&#45;&gt;gq -->
<g id="edge105" class="edge">
<title>lg&#45;&gt;gq</title>
<path fill="none" stroke="black" d="M284.75,-936.05C290.29,-909.52 300,-856.52 300,-811 300,-811 300,-811 300,-593 300,-551.55 285.41,-505.32 274.8,-477.2"/>
<polygon fill="black" stroke="black" points="278,-475.75 271.11,-467.7 271.47,-478.29 278,-475.75"/>
</g>
<!-- bz -->
<g id="node34" class="node">
<title>bz</title>
<ellipse fill="none" stroke="black" cx="150" cy="-666" rx="27" ry="18"/>
<text text-anchor="middle" x="150" y="-662.3" font-family="Times,serif" font-size="14.00">%bz</text>
</g>
<!-- lg&#45;&gt;bz -->
<g id="edge106" class="edge">
<title>lg&#45;&gt;bz</title>
<path fill="none" stroke="black" d="M257.19,-945.15C235.84,-936.99 205.02,-922.25 186,-900 141.69,-848.16 144.96,-823.14 133,-756 130.19,-740.25 130.53,-735.81 133,-720 134.38,-711.18 136.98,-701.82 139.74,-693.46"/>
<polygon fill="black" stroke="black" points="143.1,-694.45 143.11,-683.86 136.49,-692.13 143.1,-694.45"/>
</g>
<!-- kc -->
<g id="node44" class="node">
<title>kc</title>
<ellipse fill="none" stroke="black" cx="245" cy="-522" rx="27" ry="18"/>
<text text-anchor="middle" x="245" y="-518.3" font-family="Times,serif" font-size="14.00">%kc</text>
</g>
<!-- lg&#45;&gt;kc -->
<g id="edge107" class="edge">
<title>lg&#45;&gt;kc</title>
<path fill="none" stroke="black" d="M277.25,-936.05C271.71,-909.52 262,-856.52 262,-811 262,-811 262,-811 262,-665 262,-624.71 255.17,-578.44 250.17,-549.96"/>
<polygon fill="black" stroke="black" points="253.58,-549.19 248.36,-539.97 246.7,-550.43 253.58,-549.19"/>
</g>
<!-- rr -->
<g id="node59" class="node">
<title>rr</title>
<ellipse fill="none" stroke="black" cx="997" cy="-810" rx="27" ry="18"/>
<text text-anchor="middle" x="997" y="-806.3" font-family="Times,serif" font-size="14.00">&amp;rr</text>
</g>
<!-- lg&#45;&gt;rr -->
<g id="edge108" class="edge">
<title>lg&#45;&gt;rr</title>
<path fill="none" stroke="black" d="M308.07,-953.42C386.62,-953.99 620.73,-950.94 806,-900 866.87,-883.26 932.48,-848.64 968.76,-827.86"/>
<polygon fill="black" stroke="black" points="970.87,-830.69 977.77,-822.64 967.36,-824.63 970.87,-830.69"/>
</g>
<!-- ph -->
<g id="node3" class="node">
<title>ph</title>
<ellipse fill="none" stroke="black" cx="750" cy="-450" rx="27.1" ry="18"/>
<text text-anchor="middle" x="750" y="-446.3" font-family="Times,serif" font-size="14.00">%ph</text>
</g>
<!-- gr -->
<g id="node4" class="node">
<title>gr</title>
<ellipse fill="none" stroke="black" cx="767" cy="-810" rx="27" ry="18"/>
<text text-anchor="middle" x="767" y="-806.3" font-family="Times,serif" font-size="14.00">&amp;gr</text>
</g>
<!-- ph&#45;&gt;gr -->
<g id="edge2" class="edge">
<title>ph&#45;&gt;gr</title>
<path fill="none" stroke="black" d="M736.24,-465.8C703.97,-502.38 628.24,-600.16 657,-684 672.47,-729.1 713.67,-767.97 741.02,-789.92"/>
<polygon fill="black" stroke="black" points="738.99,-792.78 749.02,-796.18 743.3,-787.26 738.99,-792.78"/>
</g>
<!-- cd -->
<g id="node5" class="node">
<title>cd</title>
<ellipse fill="none" stroke="black" cx="807" cy="-378" rx="27" ry="18"/>
<text text-anchor="middle" x="807" y="-374.3" font-family="Times,serif" font-size="14.00">%cd</text>
</g>
<!-- ph&#45;&gt;cd -->
<g id="edge3" class="edge">
<title>ph&#45;&gt;cd</title>
<path fill="none" stroke="black" d="M762.37,-433.81C769.91,-424.55 779.7,-412.52 788.19,-402.09"/>
<polygon fill="black" stroke="black" points="791.06,-404.12 794.66,-394.16 785.63,-399.7 791.06,-404.12"/>
</g>
<!-- gr&#45;&gt;cd -->
<g id="edge55" class="edge">
<title>gr&#45;&gt;cd</title>
<path fill="none" stroke="black" d="M777.99,-793.22C794.55,-767.85 824,-715.88 824,-667 824,-667 824,-667 824,-521 824,-480.71 817.17,-434.44 812.17,-405.96"/>
<polygon fill="black" stroke="black" points="815.58,-405.19 810.36,-395.97 808.7,-406.43 815.58,-405.19"/>
</g>
<!-- js -->
<g id="node37" class="node">
<title>js</title>
<ellipse fill="none" stroke="black" cx="993" cy="-738" rx="27" ry="18"/>
<text text-anchor="middle" x="993" y="-734.3" font-family="Times,serif" font-size="14.00">&amp;js</text>
</g>
<!-- gr&#45;&gt;js -->
<g id="edge56" class="edge">
<title>gr&#45;&gt;js</title>
<path fill="none" stroke="black" d="M791.82,-802.85C827.59,-793.78 895.54,-775.72 952,-756 955.13,-754.91 958.36,-753.7 961.58,-752.45"/>
<polygon fill="black" stroke="black" points="963.08,-755.62 971.05,-748.64 960.47,-749.13 963.08,-755.62"/>
</g>
<!-- mc -->
<g id="node41" class="node">
<title>mc</title>
<ellipse fill="none" stroke="black" cx="767" cy="-882" rx="29.8" ry="18"/>
<text text-anchor="middle" x="767" y="-878.3" font-family="Times,serif" font-size="14.00">%mc</text>
</g>
<!-- gr&#45;&gt;mc -->
<g id="edge57" class="edge">
<title>gr&#45;&gt;mc</title>
<path fill="none" stroke="black" d="M772.86,-827.79C773.7,-835.59 773.94,-845.07 773.6,-853.85"/>
<polygon fill="black" stroke="black" points="770.09,-853.83 772.88,-864.05 777.07,-854.33 770.09,-853.83"/>
</g>
<!-- qc -->
<g id="node43" class="node">
<title>qc</title>
<ellipse fill="none" stroke="black" cx="826" cy="-234" rx="27" ry="18"/>
<text text-anchor="middle" x="826" y="-230.3" font-family="Times,serif" font-size="14.00">%qc</text>
</g>
<!-- gr&#45;&gt;qc -->
<g id="edge58" class="edge">
<title>gr&#45;&gt;qc</title>
<path fill="none" stroke="black" d="M788.37,-798.66C825.96,-778.81 900,-731.52 900,-667 900,-667 900,-667 900,-377 900,-330.59 868.53,-284.33 846.64,-257.75"/>
<polygon fill="black" stroke="black" points="849.06,-255.2 839.92,-249.84 843.73,-259.73 849.06,-255.2"/>
</g>
<!-- cz -->
<g id="node46" class="node">
<title>cz</title>
<ellipse fill="none" stroke="black" cx="579" cy="-738" rx="27" ry="18"/>
<text text-anchor="middle" x="579" y="-734.3" font-family="Times,serif" font-size="14.00">%cz</text>
</g>
<!-- gr&#45;&gt;cz -->
<g id="edge59" class="edge">
<title>gr&#45;&gt;cz</title>
<path fill="none" stroke="black" d="M743.45,-800.89C714.32,-790.77 663.26,-772.76 620,-756 617.08,-754.87 614.05,-753.67 611.02,-752.45"/>
<polygon fill="black" stroke="black" points="612.06,-749.09 601.48,-748.54 609.41,-755.57 612.06,-749.09"/>
</g>
<!-- dh -->
<g id="node47" class="node">
<title>dh</title>
<ellipse fill="none" stroke="black" cx="693" cy="-666" rx="27.1" ry="18"/>
<text text-anchor="middle" x="693" y="-662.3" font-family="Times,serif" font-size="14.00">%dh</text>
</g>
<!-- gr&#45;&gt;dh -->
<g id="edge60" class="edge">
<title>gr&#45;&gt;dh</title>
<path fill="none" stroke="black" d="M756.35,-793.07C749.61,-782.71 740.89,-768.79 734,-756 722.83,-735.28 711.76,-710.95 703.94,-692.98"/>
<polygon fill="black" stroke="black" points="707.12,-691.51 699.95,-683.71 700.69,-694.27 707.12,-691.51"/>
</g>
<!-- nj -->
<g id="node48" class="node">
<title>nj</title>
<ellipse fill="none" stroke="black" cx="731" cy="-594" rx="27" ry="18"/>
<text text-anchor="middle" x="731" y="-590.3" font-family="Times,serif" font-size="14.00">%nj</text>
</g>
<!-- gr&#45;&gt;nj -->
<g id="edge61" class="edge">
<title>gr&#45;&gt;nj</title>
<path fill="none" stroke="black" d="M764.11,-791.85C757.87,-754.74 743.07,-666.75 735.55,-622.05"/>
<polygon fill="black" stroke="black" points="738.96,-621.22 733.85,-611.94 732.06,-622.38 738.96,-621.22"/>
</g>
<!-- vr -->
<g id="node42" class="node">
<title>vr</title>
<ellipse fill="none" stroke="black" cx="826" cy="-306" rx="27" ry="18"/>
<text text-anchor="middle" x="826" y="-302.3" font-family="Times,serif" font-size="14.00">%vr</text>
</g>
<!-- cd&#45;&gt;vr -->
<g id="edge48" class="edge">
<title>cd&#45;&gt;vr</title>
<path fill="none" stroke="black" d="M811.6,-360.05C813.75,-352.14 816.35,-342.54 818.76,-333.69"/>
<polygon fill="black" stroke="black" points="822.2,-334.36 821.44,-323.79 815.45,-332.52 822.2,-334.36"/>
</g>
<!-- xs -->
<g id="node6" class="node">
<title>xs</title>
<ellipse fill="none" stroke="black" cx="2005" cy="-306" rx="27" ry="18"/>
<text text-anchor="middle" x="2005" y="-302.3" font-family="Times,serif" font-size="14.00">%xs</text>
</g>
<!-- st -->
<g id="node7" class="node">
<title>st</title>
<ellipse fill="none" stroke="black" cx="1913" cy="-810" rx="27" ry="18"/>
<text text-anchor="middle" x="1913" y="-806.3" font-family="Times,serif" font-size="14.00">&amp;st</text>
</g>
<!-- xs&#45;&gt;st -->
<g id="edge4" class="edge">
<title>xs&#45;&gt;st</title>
<path fill="none" stroke="black" d="M2013.68,-323.09C2026.75,-348.88 2050,-401.42 2050,-449 2050,-667 2050,-667 2050,-667 2050,-727.86 1984.02,-772.64 1943.64,-794.34"/>
<polygon fill="black" stroke="black" points="1941.96,-791.27 1934.71,-798.99 1945.19,-797.48 1941.96,-791.27"/>
</g>
<!-- zf -->
<g id="node8" class="node">
<title>zf</title>
<ellipse fill="none" stroke="black" cx="2005" cy="-234" rx="27" ry="18"/>
<text text-anchor="middle" x="2005" y="-230.3" font-family="Times,serif" font-size="14.00">%zf</text>
</g>
<!-- xs&#45;&gt;zf -->
<g id="edge5" class="edge">
<title>xs&#45;&gt;zf</title>
<path fill="none" stroke="black" d="M2005,-287.7C2005,-279.98 2005,-270.71 2005,-262.11"/>
<polygon fill="black" stroke="black" points="2008.5,-262.1 2005,-252.1 2001.5,-262.1 2008.5,-262.1"/>
</g>
<!-- fx -->
<g id="node12" class="node">
<title>fx</title>
<ellipse fill="none" stroke="black" cx="1862" cy="-882" rx="27" ry="18"/>
<text text-anchor="middle" x="1862" y="-878.3" font-family="Times,serif" font-size="14.00">%fx</text>
</g>
<!-- st&#45;&gt;fx -->
<g id="edge25" class="edge">
<title>st&#45;&gt;fx</title>
<path fill="none" stroke="black" d="M1906.65,-827.76C1900.74,-837.27 1892.15,-849.26 1883.98,-859.46"/>
<polygon fill="black" stroke="black" points="1881.27,-857.24 1877.58,-867.17 1886.66,-861.71 1881.27,-857.24"/>
</g>
<!-- lx -->
<g id="node13" class="node">
<title>lx</title>
<ellipse fill="none" stroke="black" cx="1733" cy="-738" rx="27" ry="18"/>
<text text-anchor="middle" x="1733" y="-734.3" font-family="Times,serif" font-size="14.00">%lx</text>
</g>
<!-- st&#45;&gt;lx -->
<g id="edge26" class="edge">
<title>st&#45;&gt;lx</title>
<path fill="none" stroke="black" d="M1889.8,-800.39C1862.14,-790.06 1814.56,-772.14 1774,-756 1771.09,-754.84 1768.06,-753.62 1765.04,-752.39"/>
<polygon fill="black" stroke="black" points="1766.09,-749.04 1755.51,-748.47 1763.43,-755.51 1766.09,-749.04"/>
</g>
<!-- kk -->
<g id="node24" class="node">
<title>kk</title>
<ellipse fill="none" stroke="black" cx="1976" cy="-378" rx="27.1" ry="18"/>
<text text-anchor="middle" x="1976" y="-374.3" font-family="Times,serif" font-size="14.00">%kk</text>
</g>
<!-- st&#45;&gt;kk -->
<g id="edge27" class="edge">
<title>st&#45;&gt;kk</title>
<path fill="none" stroke="black" d="M1897.04,-795.02C1871.93,-771.37 1826,-720.78 1826,-667 1826,-667 1826,-667 1826,-521 1826,-456.52 1900,-412.57 1944.05,-392.11"/>
<polygon fill="black" stroke="black" points="1945.53,-395.28 1953.22,-387.99 1942.66,-388.9 1945.53,-395.28"/>
</g>
<!-- hz -->
<g id="node28" class="node">
<title>hz</title>
<ellipse fill="none" stroke="black" cx="1919" cy="-594" rx="27" ry="18"/>
<text text-anchor="middle" x="1919" y="-590.3" font-family="Times,serif" font-size="14.00">%hz</text>
</g>
<!-- st&#45;&gt;hz -->
<g id="edge28" class="edge">
<title>st&#45;&gt;hz</title>
<path fill="none" stroke="black" d="M1913.61,-791.61C1914.44,-767.47 1915.95,-722.42 1917,-684 1917.56,-663.27 1918.09,-639.83 1918.46,-622.21"/>
<polygon fill="black" stroke="black" points="1921.96,-622.13 1918.66,-612.06 1914.96,-621.99 1921.96,-622.13"/>
</g>
<!-- zb -->
<g id="node29" class="node">
<title>zb</title>
<ellipse fill="none" stroke="black" cx="1661" cy="-738" rx="27" ry="18"/>
<text text-anchor="middle" x="1661" y="-734.3" font-family="Times,serif" font-size="14.00">&amp;zb</text>
</g>
<!-- st&#45;&gt;zb -->
<g id="edge29" class="edge">
<title>st&#45;&gt;zb</title>
<path fill="none" stroke="black" d="M1887.24,-804.42C1846.25,-796.74 1763.96,-779.75 1697,-756 1695.09,-755.32 1693.15,-754.58 1691.21,-753.79"/>
<polygon fill="black" stroke="black" points="1692.21,-750.41 1681.64,-749.61 1689.4,-756.82 1692.21,-750.41"/>
</g>
<!-- zf&#45;&gt;st -->
<g id="edge98" class="edge">
<title>zf&#45;&gt;st</title>
<path fill="none" stroke="black" d="M1978.82,-239.4C1921.11,-250.76 1788,-286.73 1788,-377 1788,-667 1788,-667 1788,-667 1788,-724.68 1846.83,-770.05 1883.77,-792.85"/>
<polygon fill="black" stroke="black" points="1882.26,-796.03 1892.64,-798.16 1885.85,-790.02 1882.26,-796.03"/>
</g>
<!-- xq -->
<g id="node26" class="node">
<title>xq</title>
<ellipse fill="none" stroke="black" cx="2071" cy="-162" rx="27.1" ry="18"/>
<text text-anchor="middle" x="2071" y="-158.3" font-family="Times,serif" font-size="14.00">%xq</text>
</g>
<!-- zf&#45;&gt;xq -->
<g id="edge99" class="edge">
<title>zf&#45;&gt;xq</title>
<path fill="none" stroke="black" d="M2019,-218.15C2028.01,-208.6 2039.89,-195.99 2050.02,-185.25"/>
<polygon fill="black" stroke="black" points="2052.71,-187.5 2057.02,-177.82 2047.62,-182.7 2052.71,-187.5"/>
</g>
<!-- xc -->
<g id="node9" class="node">
<title>xc</title>
<ellipse fill="none" stroke="black" cx="1279" cy="-234" rx="27" ry="18"/>
<text text-anchor="middle" x="1279" y="-230.3" font-family="Times,serif" font-size="14.00">%xc</text>
</g>
<!-- vv -->
<g id="node10" class="node">
<title>vv</title>
<ellipse fill="none" stroke="black" cx="1379" cy="-162" rx="27.1" ry="18"/>
<text text-anchor="middle" x="1379" y="-158.3" font-family="Times,serif" font-size="14.00">%vv</text>
</g>
<!-- xc&#45;&gt;vv -->
<g id="edge6" class="edge">
<title>xc&#45;&gt;vv</title>
<path fill="none" stroke="black" d="M1296.88,-220.49C1312.28,-209.7 1334.74,-193.98 1352.28,-181.7"/>
<polygon fill="black" stroke="black" points="1354.75,-184.24 1360.94,-175.64 1350.74,-178.51 1354.75,-184.24"/>
</g>
<!-- bn -->
<g id="node11" class="node">
<title>bn</title>
<ellipse fill="none" stroke="black" cx="1329" cy="-810" rx="27" ry="18"/>
<text text-anchor="middle" x="1329" y="-806.3" font-family="Times,serif" font-size="14.00">&amp;bn</text>
</g>
<!-- xc&#45;&gt;bn -->
<g id="edge7" class="edge">
<title>xc&#45;&gt;bn</title>
<path fill="none" stroke="black" d="M1263.78,-249.13C1239.82,-272.99 1196,-323.89 1196,-377 1196,-667 1196,-667 1196,-667 1196,-726.73 1259.45,-771.69 1298.7,-793.79"/>
<polygon fill="black" stroke="black" points="1297.18,-796.95 1307.63,-798.66 1300.53,-790.8 1297.18,-796.95"/>
</g>
<!-- vv&#45;&gt;bn -->
<g id="edge37" class="edge">
<title>vv&#45;&gt;bn</title>
<path fill="none" stroke="black" d="M1398.85,-174.68C1432.23,-196 1496,-244.63 1496,-305 1496,-667 1496,-667 1496,-667 1496,-736.43 1411.19,-779.02 1362.45,-797.76"/>
<polygon fill="black" stroke="black" points="1361.08,-794.53 1352.93,-801.3 1363.52,-801.1 1361.08,-794.53"/>
</g>
<!-- hh -->
<g id="node36" class="node">
<title>hh</title>
<ellipse fill="none" stroke="black" cx="1379" cy="-90" rx="27.1" ry="18"/>
<text text-anchor="middle" x="1379" y="-86.3" font-family="Times,serif" font-size="14.00">%hh</text>
</g>
<!-- vv&#45;&gt;hh -->
<g id="edge38" class="edge">
<title>vv&#45;&gt;hh</title>
<path fill="none" stroke="black" d="M1379,-143.7C1379,-135.98 1379,-126.71 1379,-118.11"/>
<polygon fill="black" stroke="black" points="1382.5,-118.1 1379,-108.1 1375.5,-118.1 1382.5,-118.1"/>
</g>
<!-- tl -->
<g id="node22" class="node">
<title>tl</title>
<ellipse fill="none" stroke="black" cx="1308" cy="-378" rx="27" ry="18"/>
<text text-anchor="middle" x="1308" y="-374.3" font-family="Times,serif" font-size="14.00">%tl</text>
</g>
<!-- bn&#45;&gt;tl -->
<g id="edge76" class="edge">
<title>bn&#45;&gt;tl</title>
<path fill="none" stroke="black" d="M1350.01,-798.33C1386.57,-778.1 1458,-730.45 1458,-667 1458,-667 1458,-667 1458,-521 1458,-456.52 1384,-412.57 1339.95,-392.11"/>
<polygon fill="black" stroke="black" points="1341.34,-388.9 1330.78,-387.99 1338.47,-395.28 1341.34,-388.9"/>
</g>
<!-- lf -->
<g id="node38" class="node">
<title>lf</title>
<ellipse fill="none" stroke="black" cx="1329" cy="-882" rx="27" ry="18"/>
<text text-anchor="middle" x="1329" y="-878.3" font-family="Times,serif" font-size="14.00">%lf</text>
</g>
<!-- bn&#45;&gt;lf -->
<g id="edge77" class="edge">
<title>bn&#45;&gt;lf</title>
<path fill="none" stroke="black" d="M1334.88,-827.96C1335.71,-835.83 1335.95,-845.37 1335.58,-854.19"/>
<polygon fill="black" stroke="black" points="1332.07,-854.18 1334.84,-864.41 1339.06,-854.69 1332.07,-854.18"/>
</g>
<!-- qg -->
<g id="node39" class="node">
<title>qg</title>
<ellipse fill="none" stroke="black" cx="1589" cy="-738" rx="27.1" ry="18"/>
<text text-anchor="middle" x="1589" y="-734.3" font-family="Times,serif" font-size="14.00">%qg</text>
</g>
<!-- bn&#45;&gt;qg -->
<g id="edge78" class="edge">
<title>bn&#45;&gt;qg</title>
<path fill="none" stroke="black" d="M1354.65,-804.14C1395.92,-796.03 1479.38,-778.38 1548,-756 1551.15,-754.97 1554.4,-753.81 1557.62,-752.59"/>
<polygon fill="black" stroke="black" points="1559.11,-755.76 1567.11,-748.82 1556.52,-749.26 1559.11,-755.76"/>
</g>
<!-- hq -->
<g id="node49" class="node">
<title>hq</title>
<ellipse fill="none" stroke="black" cx="1403" cy="-666" rx="27.1" ry="18"/>
<text text-anchor="middle" x="1403" y="-662.3" font-family="Times,serif" font-size="14.00">%hq</text>
</g>
<!-- bn&#45;&gt;hq -->
<g id="edge79" class="edge">
<title>bn&#45;&gt;hq</title>
<path fill="none" stroke="black" d="M1339.65,-793.07C1346.39,-782.71 1355.11,-768.79 1362,-756 1373.17,-735.28 1384.24,-710.95 1392.06,-692.98"/>
<polygon fill="black" stroke="black" points="1395.31,-694.27 1396.05,-683.71 1388.88,-691.51 1395.31,-694.27"/>
</g>
<!-- vj -->
<g id="node55" class="node">
<title>vj</title>
<ellipse fill="none" stroke="black" cx="1365" cy="-594" rx="27" ry="18"/>
<text text-anchor="middle" x="1365" y="-590.3" font-family="Times,serif" font-size="14.00">%vj</text>
</g>
<!-- bn&#45;&gt;vj -->
<g id="edge80" class="edge">
<title>bn&#45;&gt;vj</title>
<path fill="none" stroke="black" d="M1331.89,-791.85C1338.13,-754.74 1352.93,-666.75 1360.45,-622.05"/>
<polygon fill="black" stroke="black" points="1363.94,-622.38 1362.15,-611.94 1357.04,-621.22 1363.94,-622.38"/>
</g>
<!-- rs -->
<g id="node56" class="node">
<title>rs</title>
<ellipse fill="none" stroke="black" cx="1327" cy="-522" rx="27" ry="18"/>
<text text-anchor="middle" x="1327" y="-518.3" font-family="Times,serif" font-size="14.00">%rs</text>
</g>
<!-- bn&#45;&gt;rs -->
<g id="edge81" class="edge">
<title>bn&#45;&gt;rs</title>
<path fill="none" stroke="black" d="M1328.88,-791.97C1328.55,-744.29 1327.6,-609.18 1327.19,-550.63"/>
<polygon fill="black" stroke="black" points="1330.69,-550.28 1327.12,-540.31 1323.69,-550.33 1330.69,-550.28"/>
</g>
<!-- bs -->
<g id="node57" class="node">
<title>bs</title>
<ellipse fill="none" stroke="black" cx="1103" cy="-738" rx="27" ry="18"/>
<text text-anchor="middle" x="1103" y="-734.3" font-family="Times,serif" font-size="14.00">&amp;bs</text>
</g>
<!-- bn&#45;&gt;bs -->
<g id="edge82" class="edge">
<title>bn&#45;&gt;bs</title>
<path fill="none" stroke="black" d="M1304.18,-802.85C1268.41,-793.78 1200.46,-775.72 1144,-756 1140.87,-754.91 1137.64,-753.7 1134.42,-752.45"/>
<polygon fill="black" stroke="black" points="1135.53,-749.13 1124.95,-748.64 1132.92,-755.62 1135.53,-749.13"/>
</g>
<!-- fx&#45;&gt;st -->
<g id="edge8" class="edge">
<title>fx&#45;&gt;st</title>
<path fill="none" stroke="black" d="M1868.25,-864.41C1874.1,-854.97 1882.64,-843.03 1890.79,-832.83"/>
<polygon fill="black" stroke="black" points="1893.5,-835.04 1897.18,-825.11 1888.11,-830.58 1893.5,-835.04"/>
</g>
<!-- fx&#45;&gt;lx -->
<g id="edge9" class="edge">
<title>fx&#45;&gt;lx</title>
<path fill="none" stroke="black" d="M1848.68,-866.34C1826.09,-841.47 1780.1,-790.85 1753.42,-761.48"/>
<polygon fill="black" stroke="black" points="1755.75,-758.84 1746.44,-753.79 1750.57,-763.55 1755.75,-758.84"/>
</g>
<!-- gp -->
<g id="node20" class="node">
<title>gp</title>
<ellipse fill="none" stroke="black" cx="1881" cy="-666" rx="27.1" ry="18"/>
<text text-anchor="middle" x="1881" y="-662.3" font-family="Times,serif" font-size="14.00">%gp</text>
</g>
<!-- lx&#45;&gt;gp -->
<g id="edge16" class="edge">
<title>lx&#45;&gt;gp</title>
<path fill="none" stroke="black" d="M1754.52,-726.82C1779.73,-714.9 1821.68,-695.06 1850.3,-681.52"/>
<polygon fill="black" stroke="black" points="1851.91,-684.63 1859.45,-677.19 1848.92,-678.3 1851.91,-684.63"/>
</g>
<!-- zc -->
<g id="node15" class="node">
<title>zc</title>
<ellipse fill="none" stroke="black" cx="348" cy="-234" rx="27" ry="18"/>
<text text-anchor="middle" x="348" y="-230.3" font-family="Times,serif" font-size="14.00">%zc</text>
</g>
<!-- dn&#45;&gt;zc -->
<g id="edge10" class="edge">
<title>dn&#45;&gt;zc</title>
<path fill="none" stroke="black" d="M327.4,-288.41C330.51,-280.34 334.33,-270.43 337.83,-261.35"/>
<polygon fill="black" stroke="black" points="341.13,-262.55 341.46,-251.96 334.6,-260.03 341.13,-262.55"/>
</g>
<!-- zc&#45;&gt;lg -->
<g id="edge70" class="edge">
<title>zc&#45;&gt;lg</title>
<path fill="none" stroke="black" d="M353.53,-251.84C361.69,-278.21 376,-331.02 376,-377 376,-811 376,-811 376,-811 376,-861.48 334.01,-907.61 305.86,-932.85"/>
<polygon fill="black" stroke="black" points="303.23,-930.5 297.98,-939.7 307.83,-935.78 303.23,-930.5"/>
</g>
<!-- qn -->
<g id="node54" class="node">
<title>qn</title>
<ellipse fill="none" stroke="black" cx="348" cy="-162" rx="27.1" ry="18"/>
<text text-anchor="middle" x="348" y="-158.3" font-family="Times,serif" font-size="14.00">%qn</text>
</g>
<!-- zc&#45;&gt;qn -->
<g id="edge71" class="edge">
<title>zc&#45;&gt;qn</title>
<path fill="none" stroke="black" d="M348,-215.7C348,-207.98 348,-198.71 348,-190.11"/>
<polygon fill="black" stroke="black" points="351.5,-190.1 348,-180.1 344.5,-190.1 351.5,-190.1"/>
</g>
<!-- nd&#45;&gt;lg -->
<g id="edge11" class="edge">
<title>nd&#45;&gt;lg</title>
<path fill="none" stroke="black" d="M411.14,-894.69C386.15,-907.3 343.32,-927.31 313.55,-940.3"/>
<polygon fill="black" stroke="black" points="311.81,-937.24 304.01,-944.42 314.58,-943.67 311.81,-937.24"/>
</g>
<!-- nd&#45;&gt;tc -->
<g id="edge12" class="edge">
<title>nd&#45;&gt;tc</title>
<path fill="none" stroke="black" d="M406.6,-873.38C366.44,-860.82 286.31,-835.79 240.74,-821.54"/>
<polygon fill="black" stroke="black" points="241.62,-818.15 231.03,-818.51 239.53,-824.83 241.62,-818.15"/>
</g>
<!-- kj -->
<g id="node21" class="node">
<title>kj</title>
<ellipse fill="none" stroke="black" cx="169" cy="-738" rx="27" ry="18"/>
<text text-anchor="middle" x="169" y="-734.3" font-family="Times,serif" font-size="14.00">%kj</text>
</g>
<!-- tc&#45;&gt;kj -->
<g id="edge17" class="edge">
<title>tc&#45;&gt;kj</title>
<path fill="none" stroke="black" d="M198.19,-792.76C193.58,-784.28 187.84,-773.71 182.68,-764.2"/>
<polygon fill="black" stroke="black" points="185.61,-762.27 177.77,-755.15 179.46,-765.61 185.61,-762.27"/>
</g>
<!-- pd -->
<g id="node18" class="node">
<title>pd</title>
<ellipse fill="none" stroke="black" cx="264" cy="-378" rx="27.1" ry="18"/>
<text text-anchor="middle" x="264" y="-374.3" font-family="Times,serif" font-size="14.00">%pd</text>
</g>
<!-- pd&#45;&gt;lg -->
<g id="edge13" class="edge">
<title>pd&#45;&gt;lg</title>
<path fill="none" stroke="black" d="M237.63,-382.87C178.02,-393.27 38,-427.63 38,-521 38,-811 38,-811 38,-811 38,-857.5 55.87,-872.01 93,-900 137.84,-933.8 203.33,-946.05 243.99,-950.49"/>
<polygon fill="black" stroke="black" points="243.72,-953.98 254.02,-951.48 244.41,-947.01 243.72,-953.98"/>
</g>
<!-- pd&#45;&gt;dn -->
<g id="edge14" class="edge">
<title>pd&#45;&gt;dn</title>
<path fill="none" stroke="black" d="M276.37,-361.81C283.91,-352.55 293.7,-340.52 302.19,-330.09"/>
<polygon fill="black" stroke="black" points="305.06,-332.12 308.66,-322.16 299.63,-327.7 305.06,-332.12"/>
</g>
<!-- pc -->
<g id="node19" class="node">
<title>pc</title>
<ellipse fill="none" stroke="black" cx="675" cy="-18" rx="27" ry="18"/>
<text text-anchor="middle" x="675" y="-14.3" font-family="Times,serif" font-size="14.00">%pc</text>
</g>
<!-- pc&#45;&gt;gr -->
<g id="edge15" class="edge">
<title>pc&#45;&gt;gr</title>
<path fill="none" stroke="black" d="M652.07,-27.95C609.82,-46.11 524,-91.55 524,-161 524,-667 524,-667 524,-667 524,-707.45 514.72,-727.09 543,-756 568.78,-782.36 673.77,-798.25 730.39,-805.08"/>
<polygon fill="black" stroke="black" points="730.03,-808.56 740.37,-806.24 730.84,-801.6 730.03,-808.56"/>
</g>
<!-- gp&#45;&gt;st -->
<g id="edge39" class="edge">
<title>gp&#45;&gt;st</title>
<path fill="none" stroke="black" d="M1884.89,-684.27C1890.4,-708.71 1900.52,-753.63 1907,-782.37"/>
<polygon fill="black" stroke="black" points="1903.59,-783.17 1909.2,-792.15 1910.42,-781.63 1903.59,-783.17"/>
</g>
<!-- gp&#45;&gt;hz -->
<g id="edge40" class="edge">
<title>gp&#45;&gt;hz</title>
<path fill="none" stroke="black" d="M1889.81,-648.76C1894.42,-640.28 1900.16,-629.71 1905.32,-620.2"/>
<polygon fill="black" stroke="black" points="1908.54,-621.61 1910.23,-611.15 1902.39,-618.27 1908.54,-621.61"/>
</g>
<!-- kj&#45;&gt;lg -->
<g id="edge88" class="edge">
<title>kj&#45;&gt;lg</title>
<path fill="none" stroke="black" d="M166.3,-755.97C164.07,-774.31 162.51,-804.12 171,-828 186.98,-872.92 228.03,-911.85 255.21,-933.86"/>
<polygon fill="black" stroke="black" points="253.14,-936.68 263.16,-940.13 257.48,-931.19 253.14,-936.68"/>
</g>
<!-- kj&#45;&gt;bz -->
<g id="edge89" class="edge">
<title>kj&#45;&gt;bz</title>
<path fill="none" stroke="black" d="M164.4,-720.05C162.25,-712.14 159.65,-702.54 157.24,-693.69"/>
<polygon fill="black" stroke="black" points="160.55,-692.52 154.56,-683.79 153.8,-694.36 160.55,-692.52"/>
</g>
<!-- nn -->
<g id="node23" class="node">
<title>nn</title>
<ellipse fill="none" stroke="black" cx="1279" cy="-306" rx="27.1" ry="18"/>
<text text-anchor="middle" x="1279" y="-302.3" font-family="Times,serif" font-size="14.00">%nn</text>
</g>
<!-- tl&#45;&gt;nn -->
<g id="edge18" class="edge">
<title>tl&#45;&gt;nn</title>
<path fill="none" stroke="black" d="M1301.13,-360.41C1297.73,-352.22 1293.56,-342.14 1289.75,-332.95"/>
<polygon fill="black" stroke="black" points="1292.88,-331.37 1285.82,-323.47 1286.42,-334.05 1292.88,-331.37"/>
</g>
<!-- nn&#45;&gt;xc -->
<g id="edge23" class="edge">
<title>nn&#45;&gt;xc</title>
<path fill="none" stroke="black" d="M1279,-287.7C1279,-279.98 1279,-270.71 1279,-262.11"/>
<polygon fill="black" stroke="black" points="1282.5,-262.1 1279,-252.1 1275.5,-262.1 1282.5,-262.1"/>
</g>
<!-- nn&#45;&gt;bn -->
<g id="edge24" class="edge">
<title>nn&#45;&gt;bn</title>
<path fill="none" stroke="black" d="M1270.32,-323.09C1257.25,-348.88 1234,-401.42 1234,-449 1234,-667 1234,-667 1234,-667 1234,-717.48 1275.99,-763.61 1304.14,-788.85"/>
<polygon fill="black" stroke="black" points="1302.17,-791.78 1312.02,-795.7 1306.77,-786.5 1302.17,-791.78"/>
</g>
<!-- kk&#45;&gt;xs -->
<g id="edge19" class="edge">
<title>kk&#45;&gt;xs</title>
<path fill="none" stroke="black" d="M1982.87,-360.41C1986.27,-352.22 1990.44,-342.14 1994.25,-332.95"/>
<polygon fill="black" stroke="black" points="1997.58,-334.05 1998.18,-323.47 1991.12,-331.37 1997.58,-334.05"/>
</g>
<!-- gq&#45;&gt;pd -->
<g id="edge20" class="edge">
<title>gq&#45;&gt;pd</title>
<path fill="none" stroke="black" d="M264,-431.7C264,-423.98 264,-414.71 264,-406.11"/>
<polygon fill="black" stroke="black" points="267.5,-406.1 264,-396.1 260.5,-406.1 267.5,-406.1"/>
</g>
<!-- xq&#45;&gt;st -->
<g id="edge21" class="edge">
<title>xq&#45;&gt;st</title>
<path fill="none" stroke="black" d="M2074.36,-179.97C2079.31,-206.52 2088,-259.56 2088,-305 2088,-667 2088,-667 2088,-667 2088,-738.89 1997.84,-780.74 1946.95,-798.63"/>
<polygon fill="black" stroke="black" points="1945.68,-795.37 1937.33,-801.89 1947.93,-802 1945.68,-795.37"/>
</g>
<!-- xj -->
<g id="node27" class="node">
<title>xj</title>
<ellipse fill="none" stroke="black" cx="2109" cy="-90" rx="27" ry="18"/>
<text text-anchor="middle" x="2109" y="-86.3" font-family="Times,serif" font-size="14.00">%xj</text>
</g>
<!-- xq&#45;&gt;xj -->
<g id="edge22" class="edge">
<title>xq&#45;&gt;xj</title>
<path fill="none" stroke="black" d="M2079.81,-144.76C2084.42,-136.28 2090.16,-125.71 2095.32,-116.2"/>
<polygon fill="black" stroke="black" points="2098.54,-117.61 2100.23,-107.15 2092.39,-114.27 2098.54,-117.61"/>
</g>
<!-- xj&#45;&gt;st -->
<g id="edge31" class="edge">
<title>xj&#45;&gt;st</title>
<path fill="none" stroke="black" d="M2112.36,-107.97C2117.31,-134.52 2126,-187.56 2126,-233 2126,-667 2126,-667 2126,-667 2126,-751.24 2009.24,-788.58 1948.62,-802.29"/>
<polygon fill="black" stroke="black" points="1947.73,-798.9 1938.69,-804.44 1949.21,-805.74 1947.73,-798.9"/>
</g>
<!-- vq -->
<g id="node32" class="node">
<title>vq</title>
<ellipse fill="none" stroke="black" cx="2136" cy="-18" rx="27.1" ry="18"/>
<text text-anchor="middle" x="2136" y="-14.3" font-family="Times,serif" font-size="14.00">%vq</text>
</g>
<!-- xj&#45;&gt;vq -->
<g id="edge32" class="edge">
<title>xj&#45;&gt;vq</title>
<path fill="none" stroke="black" d="M2115.4,-72.41C2118.51,-64.34 2122.33,-54.43 2125.83,-45.35"/>
<polygon fill="black" stroke="black" points="2129.13,-46.55 2129.46,-35.96 2122.6,-44.03 2129.13,-46.55"/>
</g>
<!-- nl -->
<g id="node50" class="node">
<title>nl</title>
<ellipse fill="none" stroke="black" cx="1957" cy="-522" rx="27" ry="18"/>
<text text-anchor="middle" x="1957" y="-518.3" font-family="Times,serif" font-size="14.00">%nl</text>
</g>
<!-- hz&#45;&gt;nl -->
<g id="edge67" class="edge">
<title>hz&#45;&gt;nl</title>
<path fill="none" stroke="black" d="M1927.81,-576.76C1932.42,-568.28 1938.16,-557.71 1943.32,-548.2"/>
<polygon fill="black" stroke="black" points="1946.54,-549.61 1948.23,-539.15 1940.39,-546.27 1946.54,-549.61"/>
</g>
<!-- hb -->
<g id="node30" class="node">
<title>hb</title>
<ellipse fill="none" stroke="black" cx="1075" cy="-666" rx="27" ry="18"/>
<text text-anchor="middle" x="1075" y="-662.3" font-family="Times,serif" font-size="14.00">&amp;hb</text>
</g>
<!-- zb&#45;&gt;hb -->
<g id="edge73" class="edge">
<title>zb&#45;&gt;hb</title>
<path fill="none" stroke="black" d="M1640.53,-725.85C1635.57,-723.57 1630.2,-721.43 1625,-720 1527.77,-693.24 1219.27,-674.68 1112.1,-668.91"/>
<polygon fill="black" stroke="black" points="1112.26,-665.41 1102.08,-668.37 1111.88,-672.4 1112.26,-665.41"/>
</g>
<!-- rx -->
<g id="node31" class="node">
<title>rx</title>
<ellipse fill="none" stroke="black" cx="1075" cy="-594" rx="27" ry="18"/>
<text text-anchor="middle" x="1075" y="-590.3" font-family="Times,serif" font-size="14.00">rx</text>
</g>
<!-- hb&#45;&gt;rx -->
<g id="edge30" class="edge">
<title>hb&#45;&gt;rx</title>
<path fill="none" stroke="black" d="M1075,-647.7C1075,-639.98 1075,-630.71 1075,-622.11"/>
<polygon fill="black" stroke="black" points="1078.5,-622.1 1075,-612.1 1071.5,-622.1 1078.5,-622.1"/>
</g>
<!-- vq&#45;&gt;st -->
<g id="edge36" class="edge">
<title>vq&#45;&gt;st</title>
<path fill="none" stroke="black" d="M2141.53,-35.84C2149.69,-62.21 2164,-115.02 2164,-161 2164,-667 2164,-667 2164,-667 2164,-764.15 2019.8,-795.61 1949.99,-805.14"/>
<polygon fill="black" stroke="black" points="1949.33,-801.7 1939.86,-806.45 1950.23,-808.64 1949.33,-801.7"/>
</g>
<!-- sz -->
<g id="node33" class="node">
<title>sz</title>
<ellipse fill="none" stroke="black" cx="750" cy="-522" rx="27" ry="18"/>
<text text-anchor="middle" x="750" y="-518.3" font-family="Times,serif" font-size="14.00">%sz</text>
</g>
<!-- sz&#45;&gt;ph -->
<g id="edge33" class="edge">
<title>sz&#45;&gt;ph</title>
<path fill="none" stroke="black" d="M750,-503.7C750,-495.98 750,-486.71 750,-478.11"/>
<polygon fill="black" stroke="black" points="753.5,-478.1 750,-468.1 746.5,-478.1 753.5,-478.1"/>
</g>
<!-- sz&#45;&gt;gr -->
<g id="edge34" class="edge">
<title>sz&#45;&gt;gr</title>
<path fill="none" stroke="black" d="M756.86,-539.86C760.66,-550.12 765.02,-563.6 767,-576 778.78,-649.65 773.59,-738.07 769.77,-781.78"/>
<polygon fill="black" stroke="black" points="766.27,-781.62 768.84,-791.9 773.24,-782.26 766.27,-781.62"/>
</g>
<!-- kx -->
<g id="node35" class="node">
<title>kx</title>
<ellipse fill="none" stroke="black" cx="150" cy="-594" rx="27.1" ry="18"/>
<text text-anchor="middle" x="150" y="-590.3" font-family="Times,serif" font-size="14.00">%kx</text>
</g>
<!-- bz&#45;&gt;kx -->
<g id="edge35" class="edge">
<title>bz&#45;&gt;kx</title>
<path fill="none" stroke="black" d="M150,-647.7C150,-639.98 150,-630.71 150,-622.11"/>
<polygon fill="black" stroke="black" points="153.5,-622.1 150,-612.1 146.5,-622.1 153.5,-622.1"/>
</g>
<!-- kx&#45;&gt;lg -->
<g id="edge51" class="edge">
<title>kx&#45;&gt;lg</title>
<path fill="none" stroke="black" d="M136.08,-609.84C114.65,-634.32 76,-685.57 76,-737 76,-811 76,-811 76,-811 76,-892.48 186.79,-930.9 245.48,-945.54"/>
<polygon fill="black" stroke="black" points="244.91,-949 255.45,-947.92 246.54,-942.2 244.91,-949"/>
</g>
<!-- kx&#45;&gt;kc -->
<g id="edge52" class="edge">
<title>kx&#45;&gt;kc</title>
<path fill="none" stroke="black" d="M167.87,-579.83C182.42,-569.11 203.16,-553.83 219.47,-541.82"/>
<polygon fill="black" stroke="black" points="221.56,-544.62 227.53,-535.87 217.41,-538.99 221.56,-544.62"/>
</g>
<!-- hh&#45;&gt;bn -->
<g id="edge90" class="edge">
<title>hh&#45;&gt;bn</title>
<path fill="none" stroke="black" d="M1352.78,-95.15C1294.24,-106.07 1158,-141.33 1158,-233 1158,-667 1158,-667 1158,-667 1158,-713.04 1176.63,-725.37 1211,-756 1234.98,-777.37 1268.99,-791.4 1294.35,-799.63"/>
<polygon fill="black" stroke="black" points="1293.35,-802.99 1303.94,-802.6 1295.42,-796.3 1293.35,-802.99"/>
</g>
<!-- jv -->
<g id="node58" class="node">
<title>jv</title>
<ellipse fill="none" stroke="black" cx="1457" cy="-18" rx="27" ry="18"/>
<text text-anchor="middle" x="1457" y="-14.3" font-family="Times,serif" font-size="14.00">%jv</text>
</g>
<!-- hh&#45;&gt;jv -->
<g id="edge91" class="edge">
<title>hh&#45;&gt;jv</title>
<path fill="none" stroke="black" d="M1394.78,-74.83C1406.06,-64.71 1421.42,-50.93 1434.05,-39.59"/>
<polygon fill="black" stroke="black" points="1436.4,-42.19 1441.51,-32.91 1431.73,-36.98 1436.4,-42.19"/>
</g>
<!-- js&#45;&gt;hb -->
<g id="edge41" class="edge">
<title>js&#45;&gt;hb</title>
<path fill="none" stroke="black" d="M1009.2,-723.17C1021.18,-712.94 1037.69,-698.85 1051.18,-687.34"/>
<polygon fill="black" stroke="black" points="1053.78,-689.72 1059.11,-680.56 1049.23,-684.39 1053.78,-689.72"/>
</g>
<!-- lf&#45;&gt;bn -->
<g id="edge42" class="edge">
<title>lf&#45;&gt;bn</title>
<path fill="none" stroke="black" d="M1323.16,-864.41C1322.3,-856.51 1322.05,-846.85 1322.41,-837.94"/>
<polygon fill="black" stroke="black" points="1325.9,-838.18 1323.12,-827.96 1318.92,-837.68 1325.9,-838.18"/>
</g>
<!-- lf&#45;&gt;qg -->
<g id="edge43" class="edge">
<title>lf&#45;&gt;qg</title>
<path fill="none" stroke="black" d="M1349.4,-869.86C1395.25,-844.82 1506.58,-784.01 1559.77,-754.97"/>
<polygon fill="black" stroke="black" points="1561.59,-757.96 1568.69,-750.09 1558.24,-751.81 1561.59,-757.96"/>
</g>
<!-- qg&#45;&gt;hq -->
<g id="edge62" class="edge">
<title>qg&#45;&gt;hq</title>
<path fill="none" stroke="black" d="M1565.82,-728.28C1533.01,-715.93 1472.88,-693.3 1435.59,-679.27"/>
<polygon fill="black" stroke="black" points="1436.77,-675.97 1426.18,-675.72 1434.31,-682.52 1436.77,-675.97"/>
</g>
<!-- broadcaster -->
<g id="node40" class="node">
<title>broadcaster</title>
<ellipse fill="none" stroke="black" cx="1067" cy="-954" rx="51.19" ry="18"/>
<text text-anchor="middle" x="1067" y="-950.3" font-family="Times,serif" font-size="14.00">broadcaster</text>
</g>
<!-- broadcaster&#45;&gt;fx -->
<g id="edge44" class="edge">
<title>broadcaster&#45;&gt;fx</title>
<path fill="none" stroke="black" d="M1116.13,-948.67C1262.82,-935.76 1695.46,-897.66 1824.96,-886.26"/>
<polygon fill="black" stroke="black" points="1825.5,-889.73 1835.15,-885.36 1824.89,-882.75 1825.5,-889.73"/>
</g>
<!-- broadcaster&#45;&gt;nd -->
<g id="edge45" class="edge">
<title>broadcaster&#45;&gt;nd</title>
<path fill="none" stroke="black" d="M1018.67,-947.68C896.36,-934.22 576.52,-899.02 467.79,-887.05"/>
<polygon fill="black" stroke="black" points="467.97,-883.55 457.65,-885.93 467.2,-890.51 467.97,-883.55"/>
</g>
<!-- broadcaster&#45;&gt;lf -->
<g id="edge46" class="edge">
<title>broadcaster&#45;&gt;lf</title>
<path fill="none" stroke="black" d="M1106.51,-942.44C1157.62,-928.79 1245.86,-905.21 1294.44,-892.23"/>
<polygon fill="black" stroke="black" points="1295.41,-895.6 1304.17,-889.63 1293.61,-888.83 1295.41,-895.6"/>
</g>
<!-- broadcaster&#45;&gt;mc -->
<g id="edge47" class="edge">
<title>broadcaster&#45;&gt;mc</title>
<path fill="none" stroke="black" d="M1025.6,-943.34C967.04,-929.68 860.88,-904.91 804.51,-891.75"/>
<polygon fill="black" stroke="black" points="805.13,-888.3 794.59,-889.44 803.54,-895.12 805.13,-888.3"/>
</g>
<!-- mc&#45;&gt;gr -->
<g id="edge63" class="edge">
<title>mc&#45;&gt;gr</title>
<path fill="none" stroke="black" d="M761.12,-864.05C760.29,-856.23 760.05,-846.75 760.41,-837.98"/>
<polygon fill="black" stroke="black" points="763.92,-838.01 761.14,-827.79 756.93,-837.51 763.92,-838.01"/>
</g>
<!-- mc&#45;&gt;cz -->
<g id="edge64" class="edge">
<title>mc&#45;&gt;cz</title>
<path fill="none" stroke="black" d="M748.97,-867.38C715.31,-841.96 642.82,-787.2 604.28,-758.1"/>
<polygon fill="black" stroke="black" points="606.24,-755.19 596.15,-751.96 602.02,-760.78 606.24,-755.19"/>
</g>
<!-- vr&#45;&gt;gr -->
<g id="edge49" class="edge">
<title>vr&#45;&gt;gr</title>
<path fill="none" stroke="black" d="M833.11,-323.7C843.6,-349.89 862,-402.46 862,-449 862,-667 862,-667 862,-667 862,-717.48 820.01,-763.61 791.86,-788.85"/>
<polygon fill="black" stroke="black" points="789.23,-786.5 783.98,-795.7 793.83,-791.78 789.23,-786.5"/>
</g>
<!-- vr&#45;&gt;qc -->
<g id="edge50" class="edge">
<title>vr&#45;&gt;qc</title>
<path fill="none" stroke="black" d="M826,-287.7C826,-279.98 826,-270.71 826,-262.11"/>
<polygon fill="black" stroke="black" points="829.5,-262.1 826,-252.1 822.5,-262.1 829.5,-262.1"/>
</g>
<!-- kt -->
<g id="node52" class="node">
<title>kt</title>
<ellipse fill="none" stroke="black" cx="713" cy="-162" rx="27" ry="18"/>
<text text-anchor="middle" x="713" y="-158.3" font-family="Times,serif" font-size="14.00">%kt</text>
</g>
<!-- qc&#45;&gt;kt -->
<g id="edge75" class="edge">
<title>qc&#45;&gt;kt</title>
<path fill="none" stroke="black" d="M806.83,-221.13C788.73,-209.91 761.38,-192.97 740.87,-180.26"/>
<polygon fill="black" stroke="black" points="742.61,-177.22 732.26,-174.93 738.92,-183.17 742.61,-177.22"/>
</g>
<!-- kc&#45;&gt;gq -->
<g id="edge74" class="edge">
<title>kc&#45;&gt;gq</title>
<path fill="none" stroke="black" d="M249.6,-504.05C251.75,-496.14 254.35,-486.54 256.76,-477.69"/>
<polygon fill="black" stroke="black" points="260.2,-478.36 259.44,-467.79 253.45,-476.52 260.2,-478.36"/>
</g>
<!-- jr -->
<g id="node45" class="node">
<title>jr</title>
<ellipse fill="none" stroke="black" cx="1308" cy="-450" rx="27" ry="18"/>
<text text-anchor="middle" x="1308" y="-446.3" font-family="Times,serif" font-size="14.00">%jr</text>
</g>
<!-- jr&#45;&gt;bn -->
<g id="edge53" class="edge">
<title>jr&#45;&gt;bn</title>
<path fill="none" stroke="black" d="M1300.89,-467.7C1290.4,-493.89 1272,-546.46 1272,-593 1272,-667 1272,-667 1272,-667 1272,-710.91 1295.77,-757.33 1312.61,-784.7"/>
<polygon fill="black" stroke="black" points="1309.7,-786.65 1318.01,-793.22 1315.61,-782.9 1309.7,-786.65"/>
</g>
<!-- jr&#45;&gt;tl -->
<g id="edge54" class="edge">
<title>jr&#45;&gt;tl</title>
<path fill="none" stroke="black" d="M1308,-431.7C1308,-423.98 1308,-414.71 1308,-406.11"/>
<polygon fill="black" stroke="black" points="1311.5,-406.1 1308,-396.1 1304.5,-406.1 1311.5,-406.1"/>
</g>
<!-- cz&#45;&gt;dh -->
<g id="edge83" class="edge">
<title>cz&#45;&gt;dh</title>
<path fill="none" stroke="black" d="M598.34,-725.13C616.6,-713.91 644.19,-696.97 664.89,-684.26"/>
<polygon fill="black" stroke="black" points="666.88,-687.15 673.57,-678.93 663.21,-681.18 666.88,-687.15"/>
</g>
<!-- dh&#45;&gt;nj -->
<g id="edge93" class="edge">
<title>dh&#45;&gt;nj</title>
<path fill="none" stroke="black" d="M701.81,-648.76C706.42,-640.28 712.16,-629.71 717.32,-620.2"/>
<polygon fill="black" stroke="black" points="720.54,-621.61 722.23,-611.15 714.39,-618.27 720.54,-621.61"/>
</g>
<!-- nj&#45;&gt;sz -->
<g id="edge87" class="edge">
<title>nj&#45;&gt;sz</title>
<path fill="none" stroke="black" d="M735.6,-576.05C737.75,-568.14 740.35,-558.54 742.76,-549.69"/>
<polygon fill="black" stroke="black" points="746.2,-550.36 745.44,-539.79 739.45,-548.52 746.2,-550.36"/>
</g>
<!-- hq&#45;&gt;vj -->
<g id="edge92" class="edge">
<title>hq&#45;&gt;vj</title>
<path fill="none" stroke="black" d="M1394.19,-648.76C1389.58,-640.28 1383.84,-629.71 1378.68,-620.2"/>
<polygon fill="black" stroke="black" points="1381.61,-618.27 1373.77,-611.15 1375.46,-621.61 1381.61,-618.27"/>
</g>
<!-- nl&#45;&gt;st -->
<g id="edge65" class="edge">
<title>nl&#45;&gt;st</title>
<path fill="none" stroke="black" d="M1957.41,-540.11C1957.65,-558.07 1957.51,-587.09 1955,-612 1948.47,-676.71 1944.2,-692.77 1929,-756 1926.92,-764.64 1924.26,-773.95 1921.71,-782.32"/>
<polygon fill="black" stroke="black" points="1918.34,-781.36 1918.69,-791.95 1925.02,-783.45 1918.34,-781.36"/>
</g>
<!-- ch -->
<g id="node51" class="node">
<title>ch</title>
<ellipse fill="none" stroke="black" cx="1976" cy="-450" rx="27" ry="18"/>
<text text-anchor="middle" x="1976" y="-446.3" font-family="Times,serif" font-size="14.00">%ch</text>
</g>
<!-- nl&#45;&gt;ch -->
<g id="edge66" class="edge">
<title>nl&#45;&gt;ch</title>
<path fill="none" stroke="black" d="M1961.6,-504.05C1963.75,-496.14 1966.35,-486.54 1968.76,-477.69"/>
<polygon fill="black" stroke="black" points="1972.2,-478.36 1971.44,-467.79 1965.45,-476.52 1972.2,-478.36"/>
</g>
<!-- ch&#45;&gt;st -->
<g id="edge94" class="edge">
<title>ch&#45;&gt;st</title>
<path fill="none" stroke="black" d="M1983.11,-467.7C1993.6,-493.89 2012,-546.46 2012,-593 2012,-667 2012,-667 2012,-667 2012,-718.37 1967.86,-764.45 1938.53,-789.4"/>
<polygon fill="black" stroke="black" points="1936.18,-786.8 1930.7,-795.86 1940.64,-792.2 1936.18,-786.8"/>
</g>
<!-- ch&#45;&gt;kk -->
<g id="edge95" class="edge">
<title>ch&#45;&gt;kk</title>
<path fill="none" stroke="black" d="M1976,-431.7C1976,-423.98 1976,-414.71 1976,-406.11"/>
<polygon fill="black" stroke="black" points="1979.5,-406.1 1976,-396.1 1972.5,-406.1 1979.5,-406.1"/>
</g>
<!-- kt&#45;&gt;gr -->
<g id="edge68" class="edge">
<title>kt&#45;&gt;gr</title>
<path fill="none" stroke="black" d="M693.83,-174.85C661.59,-196.43 600,-245.45 600,-305 600,-595 600,-595 600,-595 600,-673.2 618.22,-698.29 671,-756 688.12,-774.71 713.41,-788.3 733.74,-797.03"/>
<polygon fill="black" stroke="black" points="732.68,-800.38 743.26,-800.93 735.33,-793.9 732.68,-800.38"/>
</g>
<!-- jc -->
<g id="node53" class="node">
<title>jc</title>
<ellipse fill="none" stroke="black" cx="713" cy="-90" rx="27" ry="18"/>
<text text-anchor="middle" x="713" y="-86.3" font-family="Times,serif" font-size="14.00">%jc</text>
</g>
<!-- kt&#45;&gt;jc -->
<g id="edge69" class="edge">
<title>kt&#45;&gt;jc</title>
<path fill="none" stroke="black" d="M713,-143.7C713,-135.98 713,-126.71 713,-118.11"/>
<polygon fill="black" stroke="black" points="716.5,-118.1 713,-108.1 709.5,-118.1 716.5,-118.1"/>
</g>
<!-- jc&#45;&gt;gr -->
<g id="edge85" class="edge">
<title>jc&#45;&gt;gr</title>
<path fill="none" stroke="black" d="M739.25,-94.91C798.6,-105.4 938,-139.92 938,-233 938,-667 938,-667 938,-667 938,-737.58 850.71,-779.79 800.87,-798.14"/>
<polygon fill="black" stroke="black" points="799.39,-794.95 791.14,-801.6 801.73,-801.55 799.39,-794.95"/>
</g>
<!-- jc&#45;&gt;pc -->
<g id="edge86" class="edge">
<title>jc&#45;&gt;pc</title>
<path fill="none" stroke="black" d="M704.19,-72.76C699.58,-64.28 693.84,-53.71 688.68,-44.2"/>
<polygon fill="black" stroke="black" points="691.61,-42.27 683.77,-35.15 685.46,-45.61 691.61,-42.27"/>
</g>
<!-- qn&#45;&gt;hm -->
<g id="edge100" class="edge">
<title>qn&#45;&gt;hm</title>
<path fill="none" stroke="black" d="M321.84,-167.79C240.91,-183.35 0,-235.51 0,-305 0,-883 0,-883 0,-883 0,-941.53 60.87,-986.25 99.63,-1008.79"/>
<polygon fill="black" stroke="black" points="98.05,-1011.92 108.48,-1013.78 101.49,-1005.82 98.05,-1011.92"/>
</g>
<!-- qn&#45;&gt;lg -->
<g id="edge101" class="edge">
<title>qn&#45;&gt;lg</title>
<path fill="none" stroke="black" d="M369.87,-172.96C408.78,-192.37 486,-239.17 486,-305 486,-811 486,-811 486,-811 486,-851.45 494.62,-870.45 467,-900 428.53,-941.15 360.59,-951.13 318.33,-953.12"/>
<polygon fill="black" stroke="black" points="318.05,-949.62 308.18,-953.46 318.29,-956.62 318.05,-949.62"/>
</g>
<!-- vj&#45;&gt;rs -->
<g id="edge72" class="edge">
<title>vj&#45;&gt;rs</title>
<path fill="none" stroke="black" d="M1356.19,-576.76C1351.58,-568.28 1345.84,-557.71 1340.68,-548.2"/>
<polygon fill="black" stroke="black" points="1343.61,-546.27 1335.77,-539.15 1337.46,-549.61 1343.61,-546.27"/>
</g>
<!-- rs&#45;&gt;jr -->
<g id="edge97" class="edge">
<title>rs&#45;&gt;jr</title>
<path fill="none" stroke="black" d="M1322.4,-504.05C1320.25,-496.14 1317.65,-486.54 1315.24,-477.69"/>
<polygon fill="black" stroke="black" points="1318.55,-476.52 1312.56,-467.79 1311.8,-478.36 1318.55,-476.52"/>
</g>
<!-- bs&#45;&gt;hb -->
<g id="edge84" class="edge">
<title>bs&#45;&gt;hb</title>
<path fill="none" stroke="black" d="M1096.36,-720.41C1093.09,-712.22 1089.06,-702.14 1085.38,-692.95"/>
<polygon fill="black" stroke="black" points="1088.55,-691.45 1081.59,-683.47 1082.05,-694.05 1088.55,-691.45"/>
</g>
<!-- jv&#45;&gt;bn -->
<g id="edge96" class="edge">
<title>jv&#45;&gt;bn</title>
<path fill="none" stroke="black" d="M1471.12,-33.34C1493.35,-57.51 1534,-108.84 1534,-161 1534,-667 1534,-667 1534,-667 1534,-748.48 1423.21,-786.9 1364.52,-801.54"/>
<polygon fill="black" stroke="black" points="1363.46,-798.2 1354.55,-803.92 1365.09,-805 1363.46,-798.2"/>
</g>
<!-- rr&#45;&gt;hb -->
<g id="edge109" class="edge">
<title>rr&#45;&gt;hb</title>
<path fill="none" stroke="black" d="M1007.08,-792.93C1013.53,-782.5 1021.97,-768.57 1029,-756 1040.82,-734.87 1053.39,-710.4 1062.4,-692.47"/>
<polygon fill="black" stroke="black" points="1065.67,-693.76 1067.01,-683.25 1059.41,-690.63 1065.67,-693.76"/>
</g>
</g>
</svg>
